<?xml version="1.0" encoding="UTF-8"?>
<!DOCTYPE svg PUBLIC "-//W3C//DTD SVG 1.1//EN" "http://www.w3.org/Graphics/SVG/1.1/DTD/svg11.dtd">
<!-- Creator: CorelDRAW 2020 (64-Bit) -->
<svg xmlns="http://www.w3.org/2000/svg" xml:space="preserve" width="2.11009in" height="1.23352in" version="1.1" style="shape-rendering:geometricPrecision; text-rendering:geometricPrecision; image-rendering:optimizeQuality; fill-rule:evenodd; clip-rule:evenodd"
viewBox="0 0 14.49 8.47"
 xmlns:xlink="http://www.w3.org/1999/xlink"
 xmlns:xodm="http://www.corel.com/coreldraw/odm/2003">
 <defs>
  <style type="text/css">
   <![CDATA[
    .fil7 {fill:#03629D}
    .fil3 {fill:#0576BC}
    .fil1 {fill:#0A9356}
    .fil0 {fill:#181716}
    .fil11 {fill:#685332}
    .fil5 {fill:#C60527}
    .fil2 {fill:#D80A33}
    .fil6 {fill:#E4E4E4}
    .fil4 {fill:#F7CA98}
    .fil8 {fill:#F9D874}
    .fil10 {fill:#FAEC90}
    .fil9 {fill:white}
   ]]>
  </style>
 </defs>
 <g id="Layer_x0020_1">
  <metadata id="CorelCorpID_0Corel-Layer"/>
  <path class="fil0" d="M6.18 3.64c-0.05,0.02 -0.27,0.03 -0.36,0.05 -0.06,0.01 -0.13,0.04 -0.17,0.04l-0.97 0.08c-0.07,-0.15 -0.38,-0.6 -0.55,-0.62 -0.28,-0.03 -0.35,0.51 -0.39,0.77 -0.15,0.95 0.21,0.64 0.05,0.93 -0.3,0.5 -0.25,0.81 -0.4,1.37 -0.15,0.61 -0.03,1.49 0.44,1.74 0.44,0.23 0.51,-0.21 0.75,-0.27 0.23,-0.06 0.26,-0.01 0.38,-0.22 0.12,0.02 0.07,0.09 0.24,0.04 0.11,-0.03 0.12,-0.09 0.26,-0.02 0.07,0.19 -0.1,0.4 -0.01,0.58 0.1,0.05 0.52,0.03 0.66,0.04 0.1,0.01 0.2,0.03 0.3,0.03 0.11,0 0.26,-0.02 0.37,-0.01 0.21,0.02 0.25,0.2 0.42,0.28 0.23,0.1 0.58,-0.03 0.75,-0.24 0.16,-0.2 0.68,-0.04 0.85,-0.21 0.07,-0.07 0.04,-0.19 0.05,-0.3 0.02,-0.2 0.31,-0.14 0.31,-0.74 0.13,-0.04 0.14,-0.06 0.23,-0.3 0.05,-0.15 0.09,-0.25 0.14,-0.41 0.04,-0.15 0.07,-0.29 0.08,-0.45 0.07,-0.76 -0.09,-0.39 0.41,-0.71 0.15,-0.09 0.23,-0.15 0.34,-0.26 0.36,-0.37 0.11,-0.21 0.62,-0.57 0.61,-0.43 0.62,-0.7 0.71,-0.78 0.05,-0.05 0.11,-0.05 0.18,-0.12 0.1,-0.1 0.02,-0.09 0.16,-0.14 0.08,-0.03 0.1,-0.05 0.17,-0.12 0.13,-0.14 0.12,-0.18 0.28,-0.32 0.52,-0.43 0.47,-0.47 0.88,-0.9 0.44,-0.46 0.6,-0.5 0.97,-0.82 0.15,-0.13 0.18,-0.37 0.13,-0.43 -0.09,-0.08 -0.11,-0.05 -0.21,-0.03 0.01,-0.14 0.22,-0.28 0.12,-0.44 -0.12,-0.15 -0.37,0.15 -0.44,0.23 -0.21,0.24 -0.35,0.3 -0.63,0.66 -0.11,0.14 -0.68,0.4 -0.96,0.57 -0.31,0.19 -0.16,0.08 -0.35,0.18 -0.06,0.03 -0.11,0.06 -0.16,0.09 -0.12,0.07 -0.05,0.04 -0.12,0.13 -0.04,0.05 -0.27,0.15 -0.35,0.18 -0.51,0.26 -0.79,0.5 -1.23,0.83 -0.07,0.05 -0.25,0.09 -0.35,0.15 -0.11,0.06 -0.24,0.17 -0.34,0.19 -0.08,-0.11 -0.11,-0.21 -0.21,-0.35 -0.24,-0.31 -0.52,-0.14 -0.67,0.15 -0.09,0.17 -0.09,0.26 -0.15,0.43l-0.41 0.03c0.07,-0.2 0.16,-0.27 0.21,-0.51 0.02,-0.12 0.02,-0.2 -0,-0.32 -0.03,-0.15 -0.05,-0.17 -0.09,-0.28 0.01,-0.15 0.14,0.1 0.05,-0.62 -0.02,-0.19 -0.17,-0.42 -0.06,-0.6l0.3 -0.46c0.1,-0.12 0.25,-0.35 0.18,-0.5 -0.18,-0.03 -0.38,0.12 -0.5,0.19 -0.58,0.34 -0.32,0.34 -0.74,0.15 -0.11,-0.05 -0.25,-0.06 -0.33,-0.1 -0.02,-0.11 -0.01,-0.2 -0.03,-0.31 -0.03,-0.16 -0,-0.13 -0.08,-0.26 -0.61,-0.04 -0.66,0.65 -0.72,0.73 -0.01,0.02 -0.24,0.19 -0.28,0.2 -0.08,0.02 -0.26,-0.06 -0.35,-0.11 -0.06,-0.03 -0.69,-0.26 -0.72,-0.09 -0.02,0.1 0.58,0.64 0.68,0.74 0.16,0.16 0.09,0.11 0.08,0.35 -0.01,0.35 -0.02,0.58 -0,0.92 0.01,0.16 0.06,0.26 0.17,0.32 0.2,0.11 0.09,0.09 0.22,0.26 0.07,0.1 0.2,0.19 0.19,0.31z"/>
  <path class="fil1" d="M4.73 3.98c-0.02,0.09 0.15,0.92 0.19,1.04 0.1,0.31 0.1,0.75 0.19,1.07 0.23,0.08 0.34,-0.05 0.67,-0.2 -0.01,-0.28 -0.33,-0.34 -0.11,-0.67 0.23,-0.36 0.28,-0.36 0.55,-0.37 0.02,-0 0.49,-0.36 0.58,-0.02 0.06,0.21 -0.1,0.13 0.08,0.38 0.03,0.04 0.06,0.11 0.07,0.15 0.04,0.1 0.04,0.11 0.06,0.2 0.17,0.54 -0.66,0.7 -1.14,1.13l-0.52 0.42c-0.16,0.14 -0.21,0.11 -0.19,0.26l0.21 -0c0.02,-0.08 -0.03,-0.12 -0.04,-0.22 0.28,-0.16 0.89,-0.38 1.2,-0.48 0.11,-0.04 0.18,-0.07 0.3,-0.11 0.21,-0.06 0.76,-0.27 0.9,-0.36 0.04,-0.18 -0.03,-0.75 -0.06,-0.95 -0.02,-0.16 -0.05,-0.28 -0.07,-0.43 -0.02,-0.17 -0.07,-0.24 -0.09,-0.4 -0.26,-0.04 -0.52,-0.02 -0.77,-0.08 -0.2,-0.05 -0.83,-0.21 -0.94,-0.31 -0.14,-0.12 -0.1,-0.13 -0.29,-0.13 -0.25,0 -0.54,0.02 -0.77,0.08z"/>
  <path class="fil1" d="M7.78 3.82c0.06,0.09 0.36,0.14 0.29,0.37 -0.05,0.16 -0.3,0.18 -0.44,0.22 0,0.1 0.03,0.04 0.06,0.14l0.11 0.62c0.05,0.31 0.05,0.6 0.09,0.9 0.02,0.15 -0,0.11 0.14,0.2 0.29,0.2 0.8,0.46 1.16,0.47 0.07,-0.15 0.1,-0.29 0.17,-0.45 0.07,-0.16 0.08,-0.34 0.1,-0.54 0.06,-0.52 0.01,-0.66 -0.17,-1.07 -0.13,-0.3 -0.27,-0.57 -0.46,-0.82 -0.15,-0.2 -0.22,-0.16 -0.49,-0.14 -0.08,0.01 -0.48,0.04 -0.56,0.08z"/>
  <path class="fil2" d="M5.46 7.19c0.04,0.19 0.07,0.3 0.26,0.37 0.22,0.08 0.26,0.11 0.56,0.11 0.21,-0 0.27,-0.01 0.4,-0.08 0.12,-0.07 0.3,-0.11 0.42,-0.27 0.14,-0.17 0.22,-0.23 0.39,-0.21 0.06,0.01 0.19,0.04 0.24,0.06 0.21,0.09 -0.05,0.2 0.51,0.38 0.18,0.06 0.32,0.04 0.49,-0.02 0.13,-0.05 0.26,-0.16 0.3,-0.29 0.02,-0.07 0.03,-0.21 0.01,-0.28 -0.03,-0.09 -0.19,-0.12 -0.4,-0.2l-0.67 -0.36c-0.14,-0.1 -0.21,-0.07 -0.34,-0.02l-1.07 0.42c-0.08,0.03 -0.15,0.04 -0.23,0.07 -0.28,0.11 -0.62,0.19 -0.88,0.31z"/>
  <path class="fil3" d="M4.8 6.41c-0.16,-0.02 -0.42,0.17 -0.55,0.18 0.02,-0.1 0.1,-0.12 0.22,-0.2 0.11,-0.07 0.22,-0.07 0.31,-0.12 -0.01,-0.08 -0.34,-0.64 -0.39,-0.71l-0.41 -0.68c-0.28,0.13 -0.34,1.01 -0.38,1.19 -0.02,0.11 -0.06,0.17 -0.08,0.3 -0.06,0.43 -0.07,0.56 0.06,1.04 0.06,0.21 0.17,0.34 0.34,0.44 0.21,0.12 0.37,-0.13 0.51,-0.22 0.19,-0.13 0.13,-0.26 0.22,-0.58 0.03,-0.11 0.05,-0.2 0.07,-0.31 0.02,-0.11 0.06,-0.22 0.08,-0.33z"/>
  <path class="fil4" d="M7.37 2.79c-0.15,0.02 -0.19,-0.08 -0.28,-0.13 -0.17,-0.1 -1.03,-0.04 -1.1,0.08 -0.04,0.23 -0,0.42 0.11,0.55 0.33,0.4 1.07,0.69 1.48,0.49 0.11,-0.05 0.3,-0.23 0.36,-0.33 0.13,-0.21 0.23,-0.58 0.12,-0.82 -0.06,-0.13 -0.11,-0.11 -0.25,-0.1 -0.51,0.02 -0.19,0.13 -0.44,0.26z"/>
  <path class="fil5" d="M5.99 5.23c0.01,-0.19 0.11,-0.09 0.14,-0.28 -0.21,0.01 -0.38,0.3 -0.42,0.39 -0.08,0.24 0.23,0.35 0.19,0.58 -0.14,0.14 -0.65,0.27 -0.69,0.4 -0.04,0.12 -0.2,0.81 -0.19,0.89 0.11,-0.01 0.32,-0.24 0.4,-0.31l1.08 -0.75c0.11,-0.06 0.13,-0.06 0.22,-0.15 0.2,-0.22 0.33,-0.16 0.08,-0.72 -0.06,-0.13 -0.11,-0.11 -0.12,-0.26 -0,-0.13 0.02,-0.23 -0.09,-0.27 -0.29,-0.09 -0.43,0.45 -0.62,0.46z"/>
  <path class="fil3" d="M11.44 2.34c-0.23,0.03 -0.93,0.61 -1.17,0.79 -0.07,0.06 -0.27,0.1 -0.53,0.25l-0.25 0.17c-0,0.23 0.11,0.47 0.12,0.76l0.04 0.04c0,0 0.03,0.01 0.03,0.02 0.08,-0.03 0.12,-0.06 0.18,-0.1 0.1,0.05 -0.11,0.06 0.11,0.06 0.11,-0.15 -0.04,-0.12 0.11,-0.25l0.11 -0.1c0,-0 0.01,-0.01 0.01,-0.01 0.14,-0.17 0.29,-0.35 0.49,-0.44l0.48 -0.33c0.04,-0.03 0.04,-0.04 0.13,-0.03 0,-0.07 -0.01,-0.08 0.03,-0.13 0.08,-0.12 0.05,0.09 0.17,-0.4 0.05,-0.23 0.11,-0.25 0.08,-0.34l-0.15 0.05z"/>
  <path class="fil5" d="M11.97 3.05c0.12,-0 0.13,-0.03 0.19,-0.1 0.05,-0.06 0.08,-0.1 0.14,-0.16 0.07,-0.07 0.08,-0.09 0.14,-0.15 0.06,-0.06 0.1,-0.08 0.16,-0.14 0.14,-0.11 0.32,-0.31 0.42,-0.45 0.06,-0.08 0.09,-0.09 0.14,-0.15 0.27,-0.32 0.21,-0.22 0.44,-0.43 0.31,-0.28 0.47,-0.34 0.66,-0.53 0.07,-0.07 0.08,-0.1 0.05,-0.18 -0.18,-0.03 -0.49,0.24 -0.62,0.26 0.02,-0.06 0.1,-0.1 0.15,-0.15l0.28 -0.39c0.05,-0.07 0.1,-0.11 0.12,-0.21 -0.09,0.06 -0.61,0.59 -0.69,0.7l-0.23 0.25c-0.07,0.05 -0.12,0.07 -0.22,0.11l-0.6 0.33c-0.14,0.08 -0.3,0.13 -0.34,0.3 -0.04,0.16 -0.12,0.35 -0.14,0.5 -0.02,0.21 -0.07,0.33 -0.07,0.58z"/>
  <path class="fil6" d="M4.9 6.2c0.14,-0.06 0.08,-0.17 0.05,-0.36 -0.04,-0.31 -0.33,-1.8 -0.43,-1.97 -0.03,-0.05 -0.07,-0.1 -0.09,-0.13 -0.05,-0.07 -0.05,-0.09 -0.1,-0.15 -0.12,-0.15 -0.12,-0.23 -0.26,-0.21 -0.11,0.16 -0.18,0.57 -0.2,0.79 -0.02,0.21 -0.04,0.29 0.06,0.44 0.17,0.28 0.47,0.72 0.58,0.95 0.07,0.14 0.3,0.59 0.38,0.65z"/>
  <path class="fil7" d="M11.44 2.34l0.15 -0.05c0.03,0.09 -0.03,0.11 -0.08,0.34 -0.11,0.49 -0.08,0.28 -0.17,0.4 -0.04,0.05 -0.03,0.07 -0.03,0.13 -0.09,-0.01 -0.08,0 -0.13,0.03l-0.48 0.33c-0.2,0.09 -0.36,0.26 -0.49,0.44 -0,0 -0.01,0.01 -0.01,0.01l-0.11 0.1c-0.15,0.13 0,0.1 -0.11,0.25 -0.22,0 -0.02,-0.02 -0.11,-0.06 -0.06,0.04 -0.11,0.07 -0.18,0.1 -0.01,-0 -0.03,-0.02 -0.03,-0.02l-0.04 -0.04c0.01,0.15 0.02,0.66 0.07,0.75 0.18,-0.02 0.42,-0.21 0.55,-0.34 0.08,-0.07 0.09,-0.09 0.16,-0.17 0.48,-0.53 1.2,-0.73 1.12,-1.29 -0.03,-0.2 -0.01,-0.38 0.04,-0.55 0.03,-0.12 0.12,-0.39 0.12,-0.49 -0.09,0.02 -0.18,0.04 -0.24,0.12z"/>
  <path class="fil5" d="M6.61 1.46c-0.05,-0.15 -0.24,-0.03 -0.27,-0.18 0.15,-0.08 0.11,-0.12 0.22,-0.2 0.21,-0.15 0.27,-0.07 0.33,-0.06 0.05,-0.04 0.05,0.06 0.03,-0.07 -0.34,0 -0.46,-0.45 -0.96,0.15 -0.22,0.27 -0.27,0.79 -0.27,1.16 -0,0.18 -0.02,0.5 0.05,0.66 0.03,0.07 0.03,0.07 0.15,0.08 -0.01,-0.07 -0.03,-0.23 -0.03,-0.28 0.28,-0.19 0.34,-0.19 0.75,-0.2 0.15,-0 0.31,-0.01 0.44,0.02 0.17,0.04 0.24,0.19 0.34,0.1 0.05,-0.09 -0.01,-0.08 0.07,-0.15 0.14,-0.12 0.39,0 0.6,-0.13 0.01,-0.1 -0.01,-0.46 -0.06,-0.53 -0.04,0.03 -0.33,0.43 -0.66,0.47 -0.12,0.01 -0.16,-0.01 -0.26,-0.02 -0.16,-0.01 -0.14,0.22 -0.69,0.04 -0.22,-0.07 -0.34,-0.22 -0.48,-0.37 -0.16,-0.18 -0.02,-0.49 0.18,-0.56 0.19,-0.06 0.34,0.04 0.5,0.07z"/>
  <path class="fil6" d="M7.37 7.24c-0.2,0.06 -0.17,0.1 -0.3,0.24 -0.06,0.06 -0.19,0.11 -0.14,0.4 0.04,0.27 0.36,0.5 0.65,0.43 0.25,-0.06 0.49,-0.34 0.41,-0.64 -0.03,-0.14 -0.1,-0.07 -0.23,-0.32 -0.06,-0.11 -0.24,-0.14 -0.38,-0.1z"/>
  <path class="fil2" d="M6.93 0.96c0.02,0.13 0.01,0.03 -0.03,0.07 -0.07,-0.01 -0.12,-0.09 -0.33,0.06 -0.11,0.08 -0.06,0.11 -0.22,0.2 0.03,0.15 0.21,0.03 0.27,0.18 0.11,0.11 0.14,0.07 0.3,0.28 0.06,0.07 0.04,0.07 0.12,0.1 0.07,-0.16 0.14,-0.29 0.28,-0.41 0.2,-0.16 0.22,-0.14 0.53,-0.16 -0.01,-0.1 -0.43,-0.54 -0.84,-0.54 -0.03,0.29 -0.04,0.1 -0.08,0.23z"/>
  <path class="fil6" d="M8.59 3.64l0.2 0c0.29,0.38 0.41,0.54 0.59,0.99 0.02,0.06 0.13,0.38 0.15,0.4 0.1,-0.15 -0.04,-1.25 -0.23,-1.64 -0.11,-0.22 -0.12,-0.21 -0.28,-0.37 -0.26,0.02 -0.41,0.39 -0.43,0.63z"/>
  <path class="fil0" d="M7.28 7.39c-0.53,0.21 -0.21,0.98 0.32,0.8 0.55,-0.19 0.26,-1.03 -0.32,-0.8z"/>
  <path class="fil0" d="M0.74 7.16c0.04,0.09 0.14,0.01 0.08,0.46 -0.02,0.12 -0.09,0.06 -0.24,0.09 -0.04,-0.29 0.05,-0.21 0.08,-0.39 0.03,-0.16 -0.08,-0.26 -0.19,-0.28 -0.1,-0.02 -0.29,0.03 -0.36,0.1 -0.17,0.16 0,0.33 0.01,0.36 0.25,0.01 0.23,-0.09 0.22,-0.28l0.13 0.01c0.06,0.21 -0.11,0.16 -0.12,0.48 -0.12,0.03 -0.12,0.03 -0.09,0.17 0.11,0.04 0.64,0.03 0.76,-0 0.01,-0.15 0.02,-0.41 -0,-0.56 -0.01,-0.09 -0.04,-0.15 -0.01,-0.21 0.07,-0.12 0.09,-0.02 0.1,-0.23l-0.21 0.01c-0.09,0.22 -0.07,0.13 -0.17,0.28z"/>
  <path class="fil8" d="M6.99 2.18c0,-0.25 -0.2,-0.48 -0.34,-0.57 -0.16,-0.11 -0.5,-0.2 -0.64,0.02 -0.2,0.32 0.56,0.86 0.98,0.55z"/>
  <path class="fil0" d="M1.28 5.61c0.07,0.18 0.12,0.09 0.07,0.55l-0.24 -0.01c-0.06,-0.23 0.12,-0.28 0.08,-0.46 -0.08,-0.35 -0.79,-0.14 -0.57,0.2 0.04,0.06 0.13,0.08 0.21,0.02 0.07,-0.06 0.03,-0.16 0.06,-0.24l0.12 -0c0.04,0.12 -0.04,0.17 -0.12,0.42 -0.02,0.07 -0.01,0.02 -0.05,0.07 -0.02,0.02 -0.08,-0.02 -0.03,0.18l0.76 0.01c0.02,-0.19 -0.01,-0.58 -0.06,-0.76 0.07,-0.06 0.13,-0.1 0.13,-0.24 -0.04,-0.01 -0.1,-0.02 -0.14,-0.01 -0.09,0.03 -0.03,-0.02 -0.07,0.09 -0.05,0.13 -0.06,0.08 -0.15,0.17z"/>
  <path class="fil8" d="M7.58 1.38c-0.44,0.12 -0.76,1.04 -0.1,0.79 0.58,-0.22 0.69,-0.95 0.1,-0.79z"/>
  <path class="fil0" d="M2.24 7.86c0.16,0.04 0.59,0.04 0.75,-0l0.01 -0.83 -0.19 0.01c-0.02,0.13 -0,0.33 -0.01,0.49l-0.02 0.12c-0.02,0.05 -0.25,0.05 -0.38,0.06 0.01,-0.21 0.07,-0.1 0.11,-0.21 -0.07,-0.1 -0.01,0.01 -0.07,-0.06 -0.01,-0.01 -0.06,-0.01 -0.02,-0.08 0.04,-0.07 0.1,-0.02 0.14,-0.12 0.11,-0.29 -0.47,-0.37 -0.31,0.22 0.05,0.19 -0.1,0.1 -0.01,0.4z"/>
  <path class="fil0" d="M2.22 4.74c0.19,-0 0.6,0.03 0.77,-0.01l0.01 -0.82 -0.19 -0.01 -0 0.69 -0.39 -0.01c0,-0.28 0.04,-0.02 0.11,-0.18 -0.03,-0.08 -0.05,-0.03 -0.12,-0.09 0.01,-0.14 0.02,-0.07 0.11,-0.13 0.29,-0.2 -0.44,-0.57 -0.24,0.18 0.05,0.18 -0.08,-0.03 -0.05,0.39z"/>
  <path class="fil9" d="M5.8 3.87c0.15,0.17 0.7,0.29 1,0.33 0.3,0.05 0.92,0.2 1.15,-0.02 -0.01,-0.16 -0.21,-0.25 -0.35,-0.27 0.02,0.1 0.03,0.04 0.04,0.13l0 0.03c-0.22,0.11 -0.58,0.01 -0.83,-0.02 -0.32,-0.04 -0.49,-0.08 -0.76,-0.16 0.04,-0.05 0.1,-0.04 0.11,-0.11 -0.1,-0.04 -0.32,0.01 -0.37,0.09z"/>
  <path class="fil0" d="M1.12 4.26c0,0.13 -0.02,0.37 0.01,0.47l0.15 0c0.07,-0.11 0.13,-0.21 0.19,-0.33 0.04,-0.08 0.11,-0.28 0.2,-0.32 0.05,0.08 0.02,0.33 0.02,0.47 0,0.19 -0,0.19 0.19,0.18 0.02,-0.19 0.01,-0.67 -0.07,-0.81 -0.34,-0.03 -0.24,0.38 -0.51,0.58 -0.02,-0.32 0.03,-0.5 -0.13,-0.58 -0.19,-0.09 -0.3,0.13 -0.15,0.24 0.08,0.06 0.08,0.02 0.09,0.09z"/>
  <path class="fil0" d="M0.24 3.96c0.11,-0.27 0.07,-0.31 0.18,-0.32 0.03,0.05 -0.01,0.46 0.01,0.66 0.02,0.25 -0.02,0.48 0.28,0.43 0.04,-0.04 0.09,-0.1 0.07,-0.2 -0.02,-0.1 -0.08,-0.07 -0.15,-0.12 -0.04,-0.39 0.08,-0.91 -0.17,-0.94 -0.11,0.01 -0.14,0.05 -0.18,0.15 -0.03,0.07 -0.03,0.15 -0.06,0.19 -0.06,0.07 -0.02,0.02 -0.04,0.01 -0.07,-0.05 -0.03,-0.08 -0.06,-0.19 -0.02,-0.11 -0.03,-0.15 -0.1,-0.17 -0.07,0.12 0.01,0.16 0.05,0.27 0.04,0.13 0.02,0.22 0.17,0.23z"/>
  <path class="fil6" d="M11.63 3.3c0.29,0.06 0.2,-0.28 0.28,-0.65 0.03,-0.12 0.06,-0.25 0.1,-0.37 0.03,-0.1 0.09,-0.31 0.11,-0.4 -0.28,-0.01 -0.31,0.34 -0.4,0.58 -0.07,0.2 -0.19,0.61 -0.09,0.84z"/>
  <path class="fil6" d="M5.62 7.97c0.25,0.05 0.91,0.04 1.2,0.03 0.01,-0.09 -0.02,-0.16 -0,-0.31 -0.19,0.02 -0.2,0.1 -0.59,0.09 -0.22,-0 -0.41,-0.08 -0.58,-0.08l-0.03 0.26z"/>
  <path class="fil0" d="M1.8 5.69c0.14,-0 0.23,-0.05 0.38,-0.01 0.11,0.14 0.03,0.45 0.06,0.64 0.07,0.03 0.13,0.02 0.21,0.01 0.04,-0.39 0.1,-0.85 -0.43,-0.84 -0.19,0 -0.26,0 -0.22,0.2z"/>
  <path class="fil0" d="M1.26 7.09l-0.01 0.14c0.18,0.01 0.21,-0.09 0.44,0 0.13,0.52 -0.14,0.67 0.24,0.65 0,-0.43 0.09,-0.82 -0.32,-0.85 -0.11,-0.01 -0.28,0.02 -0.35,0.06z"/>
  <path class="fil5" d="M5.7 1.43c0.04,-0.08 0.15,-0.3 0.16,-0.39 -0.13,-0.04 -0.26,-0.06 -0.4,-0.12 -0.15,-0.05 -0.22,-0.1 -0.39,-0.12 0.02,0.15 0.03,0.12 0.12,0.19 0.11,0.08 0.39,0.42 0.51,0.43z"/>
  <path class="fil5" d="M7.73 0.91c0.02,0.07 0.17,0.29 0.24,0.32 0.07,-0.03 0.02,0 0.07,-0.06l0.3 -0.45c0.1,-0.16 0.1,-0.11 0.1,-0.21 -0.11,0 -0.4,0.23 -0.52,0.29 -0.1,0.06 -0.12,0.04 -0.19,0.12z"/>
  <path class="fil10" d="M7.26 8.03c0.03,-0.08 -0,-0.13 0.01,-0.2l0.01 -0.03c0,-0 0,-0.01 0.01,-0.02 0.07,0.04 0.06,0.07 0.14,0.12 0.13,-0.05 0.04,-0.1 0.16,-0.14 0.04,0.07 0.03,0.21 0.03,0.31 0.15,0.01 0.11,-0.13 0.1,-0.24 -0.01,-0.17 0.05,-0.29 -0.09,-0.35 -0.07,0.03 -0.06,0.03 -0.11,0.11 -0.01,0.01 -0.03,0.04 -0.04,0.05 -0.04,0.04 -0.01,0.03 -0.06,0.06 -0.06,-0.04 -0.12,-0.11 -0.16,-0.19 -0.11,0.04 -0.08,0.11 -0.08,0.26 -0,0.14 -0.05,0.26 0.08,0.27z"/>
  <path class="fil5" d="M6.35 0.7c0.21,0 0.24,0.06 0.39,0.06l-0.06 -0.57c-0.2,0.04 -0.35,0.3 -0.33,0.51z"/>
  <path class="fil9" d="M8.07 7.96c0.09,0 0.29,-0.04 0.39,-0.06 0.2,-0.04 0.25,0.01 0.25,-0.22 -0.12,0 -0.2,0.02 -0.33,0.01 -0.12,-0.01 -0.22,-0.04 -0.28,-0.04l-0.03 0.3z"/>
  <path class="fil11" d="M7.37 3.49c0.1,-0.15 0.03,-0.21 0.03,-0.39 -0.17,-0.01 -0.36,-0.04 -0.34,0.2 0.02,0.17 0.14,0.23 0.31,0.2z"/>
 </g>
</svg>
