<?xml version="1.0" encoding="UTF-8"?>
<!DOCTYPE svg PUBLIC "-//W3C//DTD SVG 1.1//EN" "http://www.w3.org/Graphics/SVG/1.1/DTD/svg11.dtd">
<!-- Creator: CorelDRAW 2020 (64-Bit) -->
<svg xmlns="http://www.w3.org/2000/svg" xml:space="preserve" width="0.437303in" height="0.645772in" version="1.1" style="shape-rendering:geometricPrecision; text-rendering:geometricPrecision; image-rendering:optimizeQuality; fill-rule:evenodd; clip-rule:evenodd"
viewBox="0 0 0.64 0.94"
 xmlns:xlink="http://www.w3.org/1999/xlink"
 xmlns:xodm="http://www.corel.com/coreldraw/odm/2003">
 <defs>
  <style type="text/css">
   <![CDATA[
    .fil0 {fill:#181716}
   ]]>
  </style>
 </defs>
 <g id="Layer_x0020_1">
  <metadata id="CorelCorpID_0Corel-Layer"/>
  <path class="fil0" d="M0.16 0.79c0.01,0.02 0.03,0 0.02,0.1 -0,0.03 -0.02,0.01 -0.05,0.02 -0.01,-0.06 0.01,-0.04 0.02,-0.08 0.01,-0.03 -0.02,-0.05 -0.04,-0.06 -0.02,-0 -0.06,0.01 -0.08,0.02 -0.04,0.03 0,0.07 0,0.08 0.05,0 0.05,-0.02 0.05,-0.06l0.03 0c0.01,0.05 -0.02,0.03 -0.03,0.1 -0.03,0.01 -0.03,0.01 -0.02,0.04 0.02,0.01 0.14,0.01 0.16,-0 0,-0.03 0,-0.09 -0,-0.12 -0,-0.02 -0.01,-0.03 -0,-0.04 0.01,-0.02 0.02,-0 0.02,-0.05l-0.04 0c-0.02,0.05 -0.01,0.03 -0.04,0.06z"/>
  <path class="fil0" d="M0.27 0.46c0.02,0.04 0.03,0.02 0.02,0.12l-0.05 -0c-0.01,-0.05 0.02,-0.06 0.02,-0.1 -0.02,-0.07 -0.17,-0.03 -0.12,0.04 0.01,0.01 0.03,0.02 0.04,0.01 0.02,-0.01 0.01,-0.03 0.01,-0.05l0.03 -0c0.01,0.03 -0.01,0.04 -0.03,0.09 -0.01,0.01 -0,0 -0.01,0.01 -0,0.01 -0.02,-0 -0.01,0.04l0.16 0c0,-0.04 -0,-0.12 -0.01,-0.16 0.02,-0.01 0.03,-0.02 0.03,-0.05 -0.01,-0 -0.02,-0 -0.03,-0 -0.02,0.01 -0.01,-0 -0.01,0.02 -0.01,0.03 -0.01,0.02 -0.03,0.04z"/>
  <path class="fil0" d="M0.48 0.94c0.03,0.01 0.13,0.01 0.16,-0l0 -0.18 -0.04 0c-0.01,0.03 -0,0.07 -0,0.11l-0 0.03c-0,0.01 -0.05,0.01 -0.08,0.01 0,-0.04 0.01,-0.02 0.02,-0.04 -0.01,-0.02 -0,0 -0.02,-0.01 -0,-0 -0.01,-0 -0,-0.02 0.01,-0.02 0.02,-0 0.03,-0.03 0.02,-0.06 -0.1,-0.08 -0.06,0.05 0.01,0.04 -0.02,0.02 -0,0.08z"/>
  <path class="fil0" d="M0.47 0.27c0.04,-0 0.13,0.01 0.16,-0l0 -0.17 -0.04 -0 -0 0.15 -0.08 -0c0,-0.06 0.01,-0 0.02,-0.04 -0.01,-0.02 -0.01,-0.01 -0.03,-0.02 0,-0.03 0,-0.01 0.02,-0.03 0.06,-0.04 -0.09,-0.12 -0.05,0.04 0.01,0.04 -0.02,-0.01 -0.01,0.08z"/>
  <path class="fil0" d="M0.24 0.17c0,0.03 -0,0.08 0,0.1l0.03 0c0.01,-0.02 0.03,-0.05 0.04,-0.07 0.01,-0.02 0.02,-0.06 0.04,-0.07 0.01,0.02 0,0.07 0,0.1 0,0.04 -0,0.04 0.04,0.04 0,-0.04 0,-0.14 -0.01,-0.17 -0.07,-0.01 -0.05,0.08 -0.11,0.12 -0,-0.07 0.01,-0.11 -0.03,-0.12 -0.04,-0.02 -0.06,0.03 -0.03,0.05 0.02,0.01 0.02,0 0.02,0.02z"/>
  <path class="fil0" d="M0.05 0.11c0.02,-0.06 0.01,-0.06 0.04,-0.07 0.01,0.01 -0,0.1 0,0.14 0,0.05 -0,0.1 0.06,0.09 0.01,-0.01 0.02,-0.02 0.02,-0.04 -0,-0.02 -0.02,-0.02 -0.03,-0.02 -0.01,-0.08 0.02,-0.19 -0.04,-0.2 -0.02,0 -0.03,0.01 -0.04,0.03 -0.01,0.02 -0.01,0.03 -0.01,0.04 -0.01,0.01 -0,0 -0.01,0 -0.02,-0.01 -0.01,-0.02 -0.01,-0.04 -0,-0.02 -0.01,-0.03 -0.02,-0.04 -0.02,0.02 0,0.03 0.01,0.06 0.01,0.03 0,0.05 0.04,0.05z"/>
  <path class="fil0" d="M0.38 0.47c0.03,-0 0.05,-0.01 0.08,-0 0.02,0.03 0.01,0.1 0.01,0.14 0.02,0.01 0.03,0 0.04,0 0.01,-0.08 0.02,-0.18 -0.09,-0.18 -0.04,0 -0.05,0 -0.05,0.04z"/>
  <path class="fil0" d="M0.27 0.77l-0 0.03c0.04,0 0.05,-0.02 0.09,0 0.03,0.11 -0.03,0.14 0.05,0.14 0,-0.09 0.02,-0.17 -0.07,-0.18 -0.02,-0 -0.06,0 -0.07,0.01z"/>
 </g>
</svg>
